<svg width="20" height="20" viewBox="0 0 20 20" fill="none" xmlns="http://www.w3.org/2000/svg">
<g id="csv">
<mask id="mask0_3_51" style="mask-type:alpha" maskUnits="userSpaceOnUse" x="0" y="0" width="20" height="20">
<rect id="Bounding box" width="20" height="20" fill="#D9D9D9"/>
</mask>
<g mask="url(#mask0_3_51)">
<path id="csv_2" d="M6 12H7.5V11H6V9H7.5V8H6C5.71667 8 5.47917 8.09583 5.2875 8.2875C5.09583 8.47917 5 8.71667 5 9V11C5 11.2833 5.09583 11.5208 5.2875 11.7125C5.47917 11.9042 5.71667 12 6 12ZM8.5 12H10.5C10.6417 12 10.7604 11.9521 10.8562 11.8563C10.9521 11.7604 11 11.6417 11 11.5V10C11 9.86111 10.9521 9.74306 10.8562 9.64583C10.7604 9.54861 10.6417 9.5 10.5 9.5H9.5V9H11V8H9C8.85833 8 8.73958 8.04792 8.64375 8.14375C8.54792 8.23958 8.5 8.35833 8.5 8.5V10C8.5 10.1389 8.54792 10.2569 8.64375 10.3542C8.73958 10.4514 8.85833 10.5 9 10.5H10V11H8.5V12ZM12.8333 12H13.8333L15 8H13.9583L13.3333 10.1458L12.7083 8H11.6667L12.8333 12ZM3.5 16C3.0875 16 2.73438 15.853 2.44063 15.5591C2.14688 15.2652 2 14.9119 2 14.4992V5.4941C2 5.08137 2.14688 4.72917 2.44063 4.4375C2.73438 4.14583 3.0875 4 3.5 4H16.5C16.9125 4 17.2656 4.14696 17.5594 4.44087C17.8531 4.73479 18 5.08811 18 5.50083V14.5059C18 14.9186 17.8531 15.2708 17.5594 15.5625C17.2656 15.8542 16.9125 16 16.5 16H3.5ZM3.5 14.5H16.5V5.5H3.5V14.5Z" fill="white"/>
</g>
</g>
</svg>
